<svg version="1.1" viewBox="0.0 0.0 672.6456692913385 672.6456692913385" fill="none" stroke="none" stroke-linecap="square" stroke-miterlimit="10" xmlns:xlink="http://www.w3.org/1999/xlink" xmlns="http://www.w3.org/2000/svg"><clipPath id="p.0"><path d="m0 0l672.6457 0l0 672.6457l-672.6457 0l0 -672.6457z" clip-rule="nonzero"/></clipPath><g clip-path="url(#p.0)"><path fill="#000000" fill-opacity="0.0" d="m0 0l672.6457 0l0 672.6457l-672.6457 0z" fill-rule="evenodd"/><path fill="#000000" d="m0.010498688 336.33072l0 0c0 -185.75034 150.58038 -336.33072 336.33072 -336.33072l0 0c89.20044 0 174.74747 35.434742 237.82169 98.50899c63.07428 63.074234 98.50903 148.62128 98.50903 237.82173l0 0c0 185.75034 -150.58038 336.33072 -336.33072 336.33072l0 0c-185.75034 0 -336.33072 -150.58038 -336.33072 -336.33072zm27.444586 0l0 0c0 170.59308 138.29303 308.88614 308.88614 308.88614c170.59308 0 308.88614 -138.29306 308.88614 -308.88614l0 0c0 -170.59311 -138.29306 -308.88614 -308.88614 -308.88614l0 0c-170.59311 0 -308.88614 138.29303 -308.88614 308.88614z" fill-rule="evenodd"/><path fill="#000000" d="m187.17355 328.66943q-6.703125 24.15625 -18.78125 72.90625q-2.828125 16.84375 -5.515625 33.546875q-6.109375 21.171875 -22.515625 21.171875q-10.28125 0 -16.25 -7.015625q-5.0625 -5.953125 -5.0625 -14.15625q0 -24.15625 10.28125 -58.890625q15.359375 -52.03125 16.546875 -57.703125q4.328125 -22.953125 8.796875 -45.90625q6.71875 -31.60936 14.546875 -42.124985q7.828125 -10.515625 19.75 -10.515625q13.5625 0 19.984375 13.71875q5.953125 12.96875 12.8125 53.07811q6.5625 38.90625 19.53125 83.78125q17.0 -44.265625 31.609375 -97.203125l8.34375 -34.281235q8.046875 -21.328125 24.90625 -21.328125q16.25 0 24.140625 24.75q3.28125 10.0 7.015625 37.281235q8.640625 63.5 21.765594 108.828125q13.265625 46.0625 13.265625 50.09375q0 8.796875 -7.0 14.75q-6.5625 5.375 -14.7655945 5.375q-16.25 0 -24.15625 -23.265625l-8.34375 -36.078125q-7.15625 -26.828125 -15.5 -77.078125q-6.71875 19.984375 -22.21875 62.765625l-8.953125 27.4375q-5.515625 16.25 -11.46875 26.6875q-7.90625 13.859375 -22.0625 13.859375q-14.015625 0 -21.46875 -16.546875l-8.359375 -27.71875q-11.625 -38.171875 -20.875 -80.21875zm249.5787 51.734375l-0.15625 62.765625q0 6.5625 -3.71875 12.078125q-5.21875 7.609375 -15.203125 7.609375q-11.78125 0 -18.5 -9.546875q-5.21875 -7.453125 -5.21875 -15.953125q0 -33.09375 2.09375 -99.4375q2.09375 -66.34375 2.09375 -99.437485q0 -8.359375 5.953125 -14.3125q5.96875 -5.96875 14.90625 -5.96875q8.953125 0 14.84375 5.96875q5.890625 5.953125 5.890625 14.3125q0 13.40625 -1.34375 36.218735q-1.640625 26.546875 -1.9375 36.234375q10.4375 -9.84375 77.375 -82.89061q6.859375 -7.453125 15.796875 -7.453125q8.5 0 14.828125 5.96875q6.34375 5.953125 6.34375 14.453125q0 9.234375 -35.484375 47.999985q-26.234375 28.484375 -55.3125 56.203125q16.25 15.359375 32.65625 30.71875q19.078125 17.59375 34.296875 28.921875q7.59375 5.515625 16.390625 8.34375q15.953125 5.078125 15.953125 19.53125q0 6.40625 -4.03125 12.375q-5.515625 8.046875 -15.34375 8.046875q-21.328125 0 -55.3125 -27.875q-10.140625 -8.34375 -47.859375 -44.875z" fill-rule="nonzero"/></g></svg>
